<svg xmlns="http://www.w3.org/2000/svg" viewBox="0 0 640.05 511.96"><title>html</title><g id="Layer_2" data-name="Layer 2"><g id="Layer_1-2" data-name="Layer 1"><path d="M278.92,511.46l-61-17.7a12,12,0,0,1-8.2-14.9L346.23,8.66a12,12,0,0,1,14.9-8.2l61,17.7a12,12,0,0,1,8.2,14.9L293.82,503.26A12,12,0,0,1,278.92,511.46Zm-114-112.2,43.5-46.4a12,12,0,0,0-.8-17.2L117,256l90.61-79.7a11.92,11.92,0,0,0,.8-17.2l-43.5-46.4a12,12,0,0,0-17-.5L3.82,247.16a11.94,11.94,0,0,0,0,17.5l144.11,135.1a11.92,11.92,0,0,0,17-.5Zm327.21.6,144.1-135.1a11.94,11.94,0,0,0,0-17.5l-144.1-135.2a12.11,12.11,0,0,0-17,.5L431.63,159a12,12,0,0,0,.79,17.2L523,256l-90.6,79.7a11.91,11.91,0,0,0-.79,17.2l43.5,46.4a12,12,0,0,0,17,.6Z"/></g></g></svg>