<svg xmlns="http://www.w3.org/2000/svg" viewBox="0 0 640.28 640.28"><defs><style>.cls-1{fill:#ffd600;}.cls-2{fill:#000001;}</style></defs><title>java</title><g id="Layer_2" data-name="Layer 2"><g id="Layer_1-2" data-name="Layer 1"><path class="cls-1" d="M0,640.28V0H640.28V640.28Z"/><path class="cls-2" d="M418.63,479.26c12.31,20,25.69,39.15,54,39.15,23.8,0,36.28-11.83,36.28-28.19,0-19.58-12.91-26.54-39.09-37.94l-14.35-6.11c-41.43-17.58-69-39.59-69-86.1,0-42.87,32.82-75.49,84.09-75.49,36.52,0,62.75,12.65,81.67,45.77l-44.71,28.58c-9.83-17.57-20.47-24.49-37-24.49-16.82,0-27.48,10.62-27.48,24.49,0,17.14,10.68,24.08,35.31,34.7l14.35,6.12c48.82,20.79,76.35,42,76.35,89.76,0,51.43-40.62,79.62-95.15,79.62-53.34,0-83.63-26.76-100.49-59.9Z"/><path class="cls-2" d="M212.57,480.72c9,16.12,22.68,28.51,42.35,28.51,18.82,0,29.65-7.43,29.65-36.33V284.57h59.28V482c0,59.89-34.74,87.13-85.46,87.13-45.84,0-78.92-31-92.4-59.9Z"/></g></g></svg>